<svg fill="none" height="24" viewBox="0 0 24 24" width="24" xmlns="http://www.w3.org/2000/svg"><g stroke="#141b34" stroke-linecap="round"><path d="m12.3107 3h-.6214c-2.43563 0-3.65346 0-4.64984.55252-.99639.55251-1.58782 1.55579-2.77068 3.56234l-.5895 1c-1.11952 1.89904-1.67928 2.84864-1.67928 3.88514s.55976 1.9861 1.67928 3.8851l.5895 1c1.18286 2.0066 1.77429 3.0099 2.77068 3.5624.99638.5525 2.21421.5525 4.64984.5525h.6214c2.4356 0 3.6535 0 4.6498-.5525.9964-.5525 1.5879-1.5558 2.7707-3.5624l.5895-1c1.1195-1.899 1.6793-2.8486 1.6793-3.8851s-.5598-1.9861-1.6793-3.88515l-.5895-.99999c-1.1828-2.00655-1.7743-3.00983-2.7707-3.56234-.9963-.55252-2.2142-.55252-4.6498-.55252z" stroke-width="1.5"/><g stroke-linejoin="round"><path d="m11.992 16h.009" stroke-width="2"/><path d="m11.9922 13v-5" stroke-width="1.5"/></g></g></svg>